<?xml version="1.0" encoding="UTF-8"?>
<svg width="100px" height="100px" viewBox="0 0 100 100" version="1.1" xmlns="http://www.w3.org/2000/svg" xmlns:xlink="http://www.w3.org/1999/xlink">
    <!-- Generator: Sketch 52.4 (67378) - http://www.bohemiancoding.com/sketch -->
    <title>weapp</title>
    <desc>Created with Sketch.</desc>
    <g id="weapp" stroke="none" stroke-width="1" fill="none" fill-rule="evenodd">
        <g id="dash_common_weapp_dash-(1)" transform="translate(0.000000, 9.000000)"></g>
        <path d="M50,99 C22.9380473,99 1,77.0619527 1,50 C1,22.9380473 22.9380473,1 50,1 C77.0619527,1 99,22.9380473 99,50 C99,77.0619527 77.0619527,99 50,99 Z M20.6024834,58.5242775 L20.6024834,58.5275313 C20.4457274,69.3725034 27.7300981,76.6209867 36.7523745,76.9672281 C45.1637044,77.2481065 53.8820387,70.0094803 54.2740245,61.8887903 C54.6334724,54.6272918 54.3687672,47.3461749 54.4047503,40.0845807 C54.4210192,35.3383562 56.9591655,32.6270893 61.5453801,32.0391106 C65.5730915,31.5066377 69.2805919,32.5193315 70.8877719,36.6253252 C72.6254863,41.0482762 69.7640665,43.6026914 66.268828,45.6344908 C65.465238,46.098347 64.5897775,46.487079 63.8907873,47.0945805 C62.440459,48.3620267 61.1142531,49.8940825 62.0452194,51.9454046 C63.0675788,54.1895615 65.0732522,54.6207842 67.4022947,54.156928 C78.0381631,52.0140213 83.1732152,37.742523 76.2252288,29.5532163 C71.7892627,24.3071526 63.5346888,22.131708 56.9493084,24.4836228 C49.7890602,27.0315304 46.1174472,32.084855 45.9639449,39.9343322 C45.8333149,46.4838253 45.820204,53.0495872 45.9639449,59.6152535 C46.0554338,63.6266003 44.5136166,66.573097 40.773387,67.8731769 C36.3211519,69.4247554 32.0223233,68.5361841 29.8729091,64.110075 C27.599468,59.3997379 29.9252568,56.1560938 34.5767385,54.1731969 C36.9057811,53.1932324 39.7215521,52.0368935 38.0719771,48.5384012 C36.66079,45.5201297 34.1521192,45.552859 31.5062151,46.7157055 C25.293202,49.4106078 20.8180947,53.4742066 20.6024834,58.5242775 Z" id="Combined-Shape" fill="#FFFFFF"></path>
    </g>
</svg>